<?xml version="1.0" encoding="UTF-8"?>
<svg id="_レイヤー_1" data-name="レイヤー_1" xmlns="http://www.w3.org/2000/svg" version="1.1" viewBox="0 0 1024 1024">
  <!-- Generator: Adobe Illustrator 29.8.7, SVG Export Plug-In . SVG Version: 2.1.1 Build 1)  -->
  <path d="M513.02,908.17c-53.47,0-105.36-10.48-154.21-31.14-47.18-19.96-89.54-48.52-125.92-84.89s-64.94-78.74-84.89-125.92c-20.66-48.86-31.14-100.74-31.14-154.21s10.48-105.36,31.14-154.21c19.96-47.18,48.52-89.54,84.89-125.92s78.74-64.94,125.92-84.89c48.86-20.66,100.74-31.14,154.21-31.14s105.36,10.48,154.22,31.14c47.18,19.96,89.54,48.52,125.92,84.89,8.33,8.33,8.33,21.84,0,30.17-8.33,8.33-21.84,8.33-30.17,0-66.77-66.77-155.54-103.54-249.97-103.54s-183.2,36.77-249.97,103.54c-66.77,66.77-103.54,155.54-103.54,249.97s36.77,183.2,103.54,249.97,155.54,103.54,249.97,103.54,183.2-36.77,249.97-103.54c8.33-8.33,21.84-8.33,30.17,0s8.33,21.84,0,30.17c-36.38,36.38-78.74,64.94-125.92,84.89-48.86,20.66-100.74,31.14-154.21,31.14Z"/>
  <g>
    <path d="M806.15,294.46c-.37,0-.74-.05-1.1-.15l-146.33-39.21c-1.47-.39-2.62-1.54-3.02-3.02-.39-1.47.03-3.04,1.1-4.12l107.12-107.12c.81-.81,1.9-1.25,3.02-1.25.37,0,.74.05,1.1.15,1.47.39,2.62,1.54,3.02,3.02l39.21,146.33c.39,1.47-.03,3.04-1.1,4.12-.81.81-1.9,1.25-3.02,1.25Z"/>
    <path d="M766.94,143.87l39.21,146.33-146.33-39.21,107.12-107.12M766.94,135.34c-2.23,0-4.41.88-6.03,2.5l-107.12,107.12c-2.16,2.16-3,5.3-2.21,8.24.79,2.94,3.09,5.24,6.03,6.03l146.33,39.21c.73.2,1.47.29,2.21.29,2.23,0,4.41-.88,6.03-2.5,2.16-2.16,3-5.3,2.21-8.24l-39.21-146.33c-.79-2.94-3.09-5.24-6.03-6.03-.73-.2-1.47-.29-2.21-.29h0Z"/>
  </g>
</svg>