<?xml version="1.0" encoding="UTF-8"?>
<svg id="_レイヤー_1" data-name="レイヤー_1" xmlns="http://www.w3.org/2000/svg" version="1.1" viewBox="0 0 1024 1024">
  <!-- Generator: Adobe Illustrator 29.8.7, SVG Export Plug-In . SVG Version: 2.1.1 Build 1)  -->
  <path d="M750.49,513.16c19.57,0,34.86-3.91,45.4-11.39,10.45-7.12,18.32-19.22,22.9-36.3,4.48-16.73,3-28.47-3.54-35.95-6.63-7.12-19.92-10.68-39.49-10.68h-39.86l-25.27,94.31h39.86M693.17,578.29l-37.19,138.8h-94.67l98.32-366.93h144.5c48.4,0,81.44,8.19,99.48,24.56,18.49,16.02,22.65,41.64,13.21,76.87-6.48,24.2-17.52,44.13-33.46,59.79-15.85,15.3-36.43,27.05-62.18,34.17,12.31,3.2,21.89,9.97,29.44,20.29,7.56,10.32,13.68,25.98,18.28,47.33l23.76,103.92h-100.72l-20.43-91.11c-4.03-18.15-9.85-30.96-17.39-37.37-7.44-6.76-18.94-10.32-34.25-10.32h-26.69"/>
</svg>