<?xml version="1.0" encoding="UTF-8"?>
<svg id="C-60pt" xmlns="http://www.w3.org/2000/svg" version="1.1" viewBox="0 0 1024 1024">
  <!-- Generator: Adobe Illustrator 29.8.7, SVG Export Plug-In . SVG Version: 2.1.1 Build 1)  -->
  <path d="M512,917.72c-54.66,0-107.7-10.71-157.65-31.84-48.23-20.4-91.54-49.6-128.73-86.78-37.18-37.18-66.38-80.49-86.78-128.72-21.13-49.95-31.84-102.99-31.84-157.65s10.71-107.7,31.84-157.65c20.4-48.23,49.6-91.54,86.78-128.73,37.19-37.18,80.49-66.38,128.73-86.78,49.95-21.13,102.99-31.84,157.65-31.84s107.7,10.71,157.65,31.84c48.23,20.4,91.54,49.6,128.72,86.78,11.72,11.72,11.72,30.71,0,42.43-11.72,11.72-30.71,11.72-42.43,0-65.16-65.16-151.8-101.05-243.95-101.05s-178.79,35.89-243.95,101.05c-65.16,65.16-101.05,151.8-101.05,243.95s35.89,178.79,101.05,243.95c65.16,65.16,151.8,101.05,243.95,101.05s178.79-35.89,243.95-101.05c11.71-11.72,30.71-11.72,42.43,0,11.72,11.72,11.72,30.71,0,42.43-37.18,37.19-80.49,66.38-128.72,86.78-49.95,21.13-102.99,31.84-157.65,31.84Z"/>
  <g>
    <polygon points="767.79 147.72 657.99 257.53 807.99 297.72 767.79 147.72"/>
    <path d="M807.98,312.72c-1.29,0-2.6-.17-3.88-.51l-150-40.19c-5.18-1.39-9.22-5.43-10.61-10.61-1.39-5.18.09-10.7,3.88-14.49l109.81-109.81c3.79-3.79,9.31-5.27,14.49-3.88,5.18,1.39,9.22,5.43,10.61,10.61l40.19,150c1.39,5.18-.09,10.7-3.88,14.49-2.85,2.85-6.68,4.39-10.61,4.39ZM686.96,249.76l99.81,26.74-26.74-99.81-73.07,73.06Z"/>
  </g>
</svg>